<?xml version="1.0" encoding="utf-8"?>
<!-- Generator: Adobe Illustrator 19.1.0, SVG Export Plug-In . SVG Version: 6.00 Build 0)  -->
<svg version="1.1" id="Layer_1" xmlns="http://www.w3.org/2000/svg" xmlns:xlink="http://www.w3.org/1999/xlink" x="0px" y="0px"
	 viewBox="15 -15 50 50" style="enable-background:new 15 -15 50 50;" xml:space="preserve">
<g>
	<path d="M31.9,9c-0.3,0.3-0.5,0.7-0.5,1.1c0,0.4,0.2,0.8,0.5,1.1l11.4,11c0.4,0.2,0.7,0.3,1.1,0.3c0.4,0,0.8-0.2,1.1-0.5
		c0.6-0.6,0.6-1.5,0-2.1L35.2,10l10.2-9.9C46-0.5,46-1.4,45.4-2s-1.5-0.6-2.1,0L31.9,9z"/>
	<path d="M15,10c0,13.8,11.2,25,25,25s25-11.2,25-25S53.8-15,40-15S15-3.8,15,10z M18,10c0-12.1,9.9-22,22-22s22,9.9,22,22
		s-9.9,22-22,22S18,22.1,18,10z"/>
</g>
</svg>
