<?xml version="1.0" encoding="utf-8"?>
<!-- Generator: Adobe Illustrator 19.1.0, SVG Export Plug-In . SVG Version: 6.00 Build 0)  -->
<svg version="1.1" id="Layer_1" xmlns="http://www.w3.org/2000/svg" xmlns:xlink="http://www.w3.org/1999/xlink" x="0px" y="0px"
	 viewBox="15 -15 50 50" style="enable-background:new 15 -15 50 50;" xml:space="preserve">
<g>
	<path d="M36.7-2c-0.6-0.6-1.5-0.6-2.1,0s-0.6,1.5,0,2.1L44.8,10l-10.3,9.9c-0.6,0.6-0.6,1.5,0,2.1c0.3,0.3,0.7,0.5,1.1,0.5
		c0.4,0,0.7-0.1,1.1-0.3l11.4-11c0.3-0.3,0.5-0.7,0.5-1.1c0-0.4-0.2-0.8-0.5-1.1L36.7-2z"/>
	<path d="M40-15C26.2-15,15-3.8,15,10s11.2,25,25,25s25-11.2,25-25S53.8-15,40-15z M40,32c-12.1,0-22-9.9-22-22s9.9-22,22-22
		s22,9.9,22,22S52.1,32,40,32z"/>
</g>
</svg>
