<?xml version="1.0" encoding="utf-8"?>
<!-- Generator: Adobe Illustrator 19.1.1, SVG Export Plug-In . SVG Version: 6.00 Build 0)  -->
<svg version="1.0" id="Layer_1" xmlns="http://www.w3.org/2000/svg" xmlns:xlink="http://www.w3.org/1999/xlink" x="0px" y="0px"
	 viewBox="0 0 32 32" style="enable-background:new 0 0 32 32;" xml:space="preserve">
<path d="M29.9,21.6c-1.9,0-3.6-0.3-5.5-1c-0.5-0.2-1,0-1.5,0.3l-3.5,3.5c-4.5-2.3-8.2-6.1-10.6-10.6l3.6-3.5
	c0.5-0.5,0.7-1.1,0.3-1.6c-0.5-1.8-0.8-3.5-0.8-5.4c0-1-0.6-1.4-1.6-1.4H4.6C3.6,2,3,2.4,3,3.4c0,15.1,11.7,27.3,26.9,27.3
	c1,0,1.1-0.8,1.1-1.7v-5.6C31,22.3,30.9,21.6,29.9,21.6z"/>
</svg>
