<?xml version="1.0" encoding="utf-8"?>
<!-- Generator: Adobe Illustrator 19.1.0, SVG Export Plug-In . SVG Version: 6.00 Build 0)  -->
<svg version="1.1" id="Layer_1" xmlns="http://www.w3.org/2000/svg" xmlns:xlink="http://www.w3.org/1999/xlink" x="0px" y="0px"
	 viewBox="15 -15 50 50" style="enable-background:new 15 -15 50 50;" xml:space="preserve">
<path d="M48.7,6.3C60.2,2,65,7.3,65,7.3s-2.4-5.3-10.9-4.7c-8.5,0.6-12.2,3.6-22.4,7.1c-3.9,1.3-7.2,1.8-9.8,1.9
	c-0.2-0.3-0.3-0.5-0.5-0.8C21,10.2,20.9,9.6,20.8,9c-0.1-0.6,0-1.2,0.2-1.8c0.2-0.5,0.5-1,0.8-1.4c0.3-0.4,0.7-0.7,1.1-0.8
	c0.4-0.2,0.7-0.2,1.1-0.1c0.2,0,0.4,0.1,0.5,0.1c-0.6,0.1-1,0.6-1,1.1c0,0.6,0.5,1.2,1.2,1.2s1.2-0.5,1.2-1.2c0-0.4-0.2-0.7-0.5-0.9
	c0,0,0,0,0,0C25.2,5.1,25,5,24.8,4.8c-0.2-0.1-0.5-0.2-0.8-0.3c-0.4-0.1-0.8-0.1-1.2,0.1c-0.2,0.1-0.4,0.2-0.7,0.3
	C22,5,22,5,21.9,5.1c0,0-0.1,0.1-0.2,0.1c-0.1,0.1-0.2,0.2-0.3,0.3c-0.4,0.4-0.7,0.9-1,1.5c-0.3,0.6-0.4,1.3-0.4,2
	c0,0.7,0.1,1.5,0.4,2.3c0.1,0.1,0.1,0.3,0.2,0.4c-3.6,0-5.7-0.8-5.7-0.8s2.1,1.4,6.4,2c0.1,0.2,0.3,0.4,0.5,0.6
	c0.6,0.6,1.3,1.2,2.1,1.7c0.8,0.5,1.7,0.8,2.6,1.1c0.9,0.3,1.9,0.4,2.9,0.5c1,0.1,1.9,0.1,2.9,0.1c1,0,2-0.1,3-0.2
	c1-0.1,2-0.3,3.1-0.6c1-0.3,2-0.6,2.9-0.9c1-0.4,1.9-0.7,2.8-1.1c0.9-0.4,1.8-0.7,2.7-1.1c0.9-0.3,1.8-0.7,2.7-1
	c0.9-0.3,1.8-0.6,2.6-0.9c0.9-0.3,1.7-0.5,2.6-0.7c0.4-0.1,0.8-0.2,1.2-0.2c0.2,0,0.4-0.1,0.6-0.1l0.2,0l0.1,0c0.1,0,0.2,0,0.3,0
	c1.5-0.1,3,0.2,4.2,0.8c0.6,0.3,1.1,0.7,1.4,1.2c0.3,0.5,0.5,1,0.5,1.6c0,0.5-0.1,1.1-0.3,1.5c-0.2,0.4-0.5,0.8-0.8,1.1
	c-0.6,0.5-1.1,0.7-1.6,0.8c0.1-0.2,0.2-0.4,0.2-0.7c0-0.6-0.5-1.2-1.2-1.2s-1.2,0.5-1.2,1.2c0,0.6,0.5,1.2,1.2,1.2c0,0,0.1,0,0.1,0
	v0c0,0,0,0,0.1,0c0,0,0.1,0,0.1,0c0.1,0,0.3,0,0.5-0.1c0.2,0,0.5-0.1,0.9-0.2c0.3-0.1,0.7-0.3,1.1-0.6c0.4-0.3,0.8-0.6,1.1-1.1
	c0.3-0.5,0.5-1.1,0.6-1.8c0.1-0.7-0.1-1.4-0.4-2.1c-0.4-0.7-0.9-1.3-1.6-1.8c-0.7-0.5-1.4-0.9-2.3-1.2C59,8.1,58.1,8,57.1,7.9
	c-0.1,0-0.2,0-0.4,0l-0.1,0l0,0l0,0c0,0,0,0,0,0l-0.2,0c-0.2,0-0.5,0-0.7,0c-0.5,0-0.9,0.1-1.4,0.2c-0.9,0.1-1.9,0.3-2.8,0.5
	c-1.9,0.4-3.8,1-5.6,1.7C45,10.7,44,11,43.1,11.4c-0.9,0.4-1.8,0.8-2.8,1.2c-1.8,0.8-3.6,1.5-5.4,1.9c-0.9,0.2-1.8,0.4-2.8,0.4
	l-0.3,0l-0.1,0l0,0l0,0l-0.2,0c-0.2,0-0.5,0-0.7,0c-0.5,0-0.9,0-1.4,0c-1.8,0-3.5-0.3-4.9-1.1c-0.5-0.3-1-0.6-1.4-0.9
	c0.3,0,0.7,0,1,0.1C30.2,13.2,37.2,10.6,48.7,6.3z"/>
</svg>
