<?xml version="1.0" encoding="utf-8"?>
<!-- Generator: Adobe Illustrator 20.1.0, SVG Export Plug-In . SVG Version: 6.00 Build 0)  -->
<svg version="1.1" id="Layer_1" xmlns="http://www.w3.org/2000/svg" xmlns:xlink="http://www.w3.org/1999/xlink" x="0px" y="0px"
	 viewBox="0 0 36 36" style="enable-background:new 0 0 36 36;" xml:space="preserve">
<g>
	<path d="M23.5,10.3c-2.3,0-3.5,2.1-4.8,4.4L18,15.8l-0.7-1.1c-1.2-2.3-2.5-4.4-4.8-4.4c-2.6,0-4.7,1.8-4.7,4
		c0,4.3,5.1,8.8,10.2,13.2c5.1-4.4,10.2-9,10.2-13.2C28.2,12.1,26.1,10.3,23.5,10.3z"/>
	<path d="M18,0.5C8.3,0.5,0.5,8.3,0.5,18S8.3,35.5,18,35.5S35.5,27.7,35.5,18S27.7,0.5,18,0.5z M18.5,29.1L18,29.5L17.5,29
		C12,24.3,6.3,19.3,6.3,14.3c0-3,2.8-5.5,6.2-5.5c2.7,0,4.2,1.9,5.5,4c1.2-2.1,2.8-4,5.5-4c3.4,0,6.2,2.5,6.2,5.5
		C29.7,19.4,24,24.3,18.5,29.1z"/>
</g>
</svg>
