<?xml version="1.0" encoding="utf-8"?>
<!-- Generator: Adobe Illustrator 19.1.1, SVG Export Plug-In . SVG Version: 6.00 Build 0)  -->
<svg version="1.0" id="Layer_1" xmlns="http://www.w3.org/2000/svg" xmlns:xlink="http://www.w3.org/1999/xlink" x="0px" y="0px"
	 viewBox="0 0 32 32" style="enable-background:new 0 0 32 32;" xml:space="preserve">
<style type="text/css">
	.st0{fill-rule:evenodd;clip-rule:evenodd;}
</style>
<path class="st0" d="M30.5,26H2.6C2.3,26,1,25.4,1,25.1V8.2C1,7.9,2.3,7,2.6,7h27.9C30.8,7,31,7.9,31,8.2v16.9
	C31,25.4,30.8,26,30.5,26z M29.5,25l-8.6-10.6l-4.3,2.9l-4.4-2.9L3.6,25H29.5z M2,24.1l8.6-10.3L2,9.2V24.1z M3.6,8l13,7.8L29.5,8
	H3.6z M21.3,13.9L30,24.1V9.2L21.3,13.9z"/>
</svg>
