<?xml version="1.0" encoding="utf-8"?>
<!-- Generator: Adobe Illustrator 19.1.1, SVG Export Plug-In . SVG Version: 6.00 Build 0)  -->
<svg version="1.0" id="Layer_1" xmlns="http://www.w3.org/2000/svg" xmlns:xlink="http://www.w3.org/1999/xlink" x="0px" y="0px"
	 viewBox="0 0 32 32" style="enable-background:new 0 0 32 32;" xml:space="preserve">
<path d="M23.3,1H10.7C10.2,1,9,1.7,9,2.2v27.7c0,0.5,1.2,1.2,1.7,1.2h12.7c0.5,0,0.7-0.7,0.7-1.2V2.2C24,1.7,23.8,1,23.3,1z M15.5,2
	h3c0.1,0,0.4,0.3,0.4,0.4c0,0.1-0.3,0.6-0.4,0.6h-3c-0.1,0-0.4-0.5-0.4-0.6C15.1,2.3,15.4,2,15.5,2z M17,29.2
	c-0.4,0-0.7-0.3-0.7-0.8c0-0.4,0.3-0.8,0.7-0.8c0.4,0,0.7,0.3,0.7,0.8C17.7,28.9,17.4,29.2,17,29.2z M23,27H10V4h13V27z"/>
</svg>
