<?xml version="1.0" encoding="utf-8"?>
<!-- Generator: Adobe Illustrator 19.1.0, SVG Export Plug-In . SVG Version: 6.00 Build 0)  -->
<svg version="1.1" id="Layer_1" xmlns="http://www.w3.org/2000/svg" xmlns:xlink="http://www.w3.org/1999/xlink" x="0px" y="0px"
	 viewBox="0 0 24 24" style="enable-background:new 0 0 24 24;" xml:space="preserve">
<path d="M17,3.5c3.3,0,5,3.2,5,5.5c0,3.4-6.8,8.9-10,11.2C8.8,18,2,12.4,2,9c0-2.3,1.7-5.5,5-5.5c3,0,4,2.6,4.1,2.7L12,8.7l0.9-2.5
	C12.9,6.2,14,3.5,17,3.5 M17,2.5c-3.7,0-5,3.3-5,3.3s-1.3-3.3-5-3.3C3.3,2.5,1,6.1,1,9C1,14,12,21.5,12,21.5S23,14,23,9
	C23,6.1,20.8,2.5,17,2.5L17,2.5z"/>
</svg>
