<?xml version="1.0" encoding="utf-8"?>
<!-- Generator: Adobe Illustrator 19.1.1, SVG Export Plug-In . SVG Version: 6.00 Build 0)  -->
<svg version="1.0" id="Layer_1" xmlns="http://www.w3.org/2000/svg" xmlns:xlink="http://www.w3.org/1999/xlink" x="0px" y="0px"
	 viewBox="0 0 24 24" style="enable-background:new 0 0 24 24;" xml:space="preserve">
<style type="text/css">
	.st0{fill-rule:evenodd;clip-rule:evenodd;}
</style>
<path class="st0" d="M21.6,20.2l-5.8-5.8c1-1.3,1.5-2.8,1.5-4.5c0-4.1-3.4-7.5-7.5-7.5S2.4,5.7,2.4,9.9c0,4.1,3.4,7.5,7.5,7.5
	c1.7,0,3.3-0.6,4.5-1.5l5.8,5.8L21.6,20.2z M4.4,9.9c0-3,2.5-5.5,5.5-5.5s5.5,2.5,5.5,5.5c0,3-2.5,5.5-5.5,5.5S4.4,12.9,4.4,9.9z"/>
</svg>
