<?xml version="1.0" encoding="utf-8"?>
<!-- Generator: Adobe Illustrator 20.1.0, SVG Export Plug-In . SVG Version: 6.00 Build 0)  -->
<svg version="1.1" id="Layer_1" xmlns="http://www.w3.org/2000/svg" xmlns:xlink="http://www.w3.org/1999/xlink" x="0px" y="0px"
	 viewBox="0 0 36 36" style="enable-background:new 0 0 36 36;" xml:space="preserve">
<style type="text/css">
	.st0{fill:#BB8B46;}
</style>
<g>
	<g>
		<path class="st0" d="M22,28.3c1.2,0,2.3-1,2.3-2.3s-1-2.3-2.3-2.3s-2.3,1-2.3,2.3S20.8,28.3,22,28.3z"/>
		<path class="st0" d="M22,13.4c1.3,0,2.3-1,2.3-2.3c0-1.3-1.1-2.3-2.3-2.3s-2.3,1-2.3,2.3C19.7,12.4,20.7,13.4,22,13.4z"/>
		<path class="st0" d="M10,16.2c-1.3,0-2.3,1.1-2.3,2.3c0,1.3,1.1,2.3,2.3,2.3s2.3-1.1,2.3-2.3C12.3,17.2,11.3,16.2,10,16.2z"/>
		<path class="st0" d="M18,0.5C8.3,0.5,0.5,8.3,0.5,18S8.3,35.5,18,35.5S35.5,27.7,35.5,18S27.7,0.5,18,0.5z M13.8,18.6
			c0,0.4-0.1,0.7-0.2,1l5.8,3.8c0.6-0.7,1.6-1.1,2.6-1.1c2.1,0,3.8,1.8,3.8,3.9c0,2.1-1.7,3.8-3.8,3.8s-3.8-1.7-3.8-3.8
			c0-0.5,0.1-1,0.3-1.4l-5.6-3.7c-0.7,0.8-1.7,1.4-2.9,1.4c-2.1,0-3.8-1.7-3.8-3.8c0-2.1,1.7-3.8,3.8-3.8c1,0,1.8,0.4,2.5,1l5.8-4.2
			c-0.1-0.2-0.1-0.4-0.1-0.6c0-2.1,1.7-3.8,3.8-3.8s3.8,1.6,3.8,3.7s-1.7,3.8-3.8,3.8c-1.3,0-2.4-0.7-3.1-1.7L13.4,17
			C13.7,17.5,13.8,18,13.8,18.6z"/>
	</g>
</g>
</svg>
