<?xml version="1.0" encoding="utf-8"?>
<!-- Generator: Adobe Illustrator 19.1.0, SVG Export Plug-In . SVG Version: 6.00 Build 0)  -->
<svg version="1.1" id="Layer_1" xmlns="http://www.w3.org/2000/svg" xmlns:xlink="http://www.w3.org/1999/xlink" x="0px" y="0px"
	 viewBox="0 0 24 24" style="enable-background:new 0 0 24 24;" xml:space="preserve">
<path d="M18.9,8.1c2,0,3.7-1.6,3.7-3.6S20.9,1,18.9,1s-3.7,1.6-3.7,3.6c0,0.4,0.1,0.7,0.2,1L8.1,9.9C7.4,9,6.4,8.4,5.1,8.4
	c-2,0-3.7,1.6-3.7,3.6c0,2,1.6,3.6,3.7,3.6c1.2,0,2.3-0.6,2.9-1.5l7.3,4.3c-0.1,0.4-0.2,0.7-0.2,1.1c0,2,1.6,3.6,3.7,3.6
	s3.7-1.6,3.7-3.6c0-2-1.6-3.6-3.7-3.6c-1.2,0-2.3,0.6-2.9,1.5L8.6,13c0.1-0.3,0.2-0.7,0.2-1c0-0.4-0.1-0.7-0.2-1l7.3-4.3
	C16.6,7.6,17.6,8.1,18.9,8.1z M18.9,17.1c1.3,0,2.4,1.1,2.4,2.4c0,1.3-1.1,2.4-2.4,2.4s-2.4-1.1-2.4-2.4
	C16.4,18.1,17.5,17.1,18.9,17.1z M5.1,14.4c-1.3,0-2.4-1.1-2.4-2.4c0-1.3,1.1-2.4,2.4-2.4s2.4,1.1,2.4,2.4
	C7.6,13.3,6.5,14.4,5.1,14.4z M18.9,2.2c1.3,0,2.4,1.1,2.4,2.4s-1.1,2.4-2.4,2.4s-2.4-1.1-2.4-2.4S17.5,2.2,18.9,2.2z"/>
</svg>
