<?xml version="1.0" encoding="utf-8"?>
<!-- Generator: Adobe Illustrator 19.1.0, SVG Export Plug-In . SVG Version: 6.00 Build 0)  -->
<svg version="1.1" id="Layer_1" xmlns="http://www.w3.org/2000/svg" xmlns:xlink="http://www.w3.org/1999/xlink" x="0px" y="0px"
	 viewBox="0 0 24 24" style="enable-background:new 0 0 24 24;" xml:space="preserve">
<g>
	<g>
		<path d="M7.6,1.1c-1.1,0-2,0.9-2,2.1c0,1.1,0.9,2.1,2,2.1c1.1,0,2-0.9,2-2.1C9.6,2,8.7,1.1,7.6,1.1z M18.4,4.6
			c1.2,0,2.2-1,2.2-2.3c0-1.3-1-2.3-2.2-2.3c-1.2,0-2.2,1-2.2,2.3C16.2,3.5,17.2,4.6,18.4,4.6z M21.9,5.6h-1.8l-1.7,3.7l-1.7-3.7
			h-1.8c-0.4,0-0.7,0.3-0.7,0.7c0,0,0,0.1,0,0.1l0,0.2l1.8,8.6V24h4.8v-8.9l1.8-8.7l0-0.1c0,0,0-0.1,0-0.1
			C22.6,5.9,22.3,5.6,21.9,5.6z"/>
	</g>
</g>
<path d="M7.6,7C9,7,9.3,7.2,9.3,8.2c0,0.6-0.3,1.7-0.7,2.7l-0.3,0.8L9,12.1c2.3,1.4,4,5.9,4.1,10.9H2c0.1-5,1.7-9.5,4.1-10.9
	l0.7-0.4l-0.3-0.8C6.1,9.8,5.8,8.8,5.8,8.2C5.8,7.2,6.1,7,7.6,7 M7.6,6C6.7,6,4.8,6,4.8,8.2c0,0.8,0.4,2.1,0.8,3.1
	C2.8,12.9,1,17.8,1,23.4C1,23.7,1.2,24,1.6,24h12c0.3,0,0.6-0.3,0.6-0.6c0-5.7-1.8-10.5-4.5-12.2c0.4-1,0.8-2.2,0.8-3.1
	C10.3,6,8.5,6,7.6,6L7.6,6z"/>
</svg>
