<?xml version="1.0" encoding="utf-8"?>
<!-- Generator: Adobe Illustrator 19.1.0, SVG Export Plug-In . SVG Version: 6.00 Build 0)  -->
<svg version="1.1" id="Layer_1" xmlns="http://www.w3.org/2000/svg" xmlns:xlink="http://www.w3.org/1999/xlink" x="0px" y="0px"
	 viewBox="0 0 24 24" style="enable-background:new 0 0 24 24;" xml:space="preserve">
<g>
	<g>
		<path d="M14.1,15.3c-1.4,0-2.7-0.5-3.8-1.6c-1-1-1.6-2.4-1.6-3.8c0-1.4,0.6-2.8,1.6-3.8l3.6-3.6c2.1-2.1,5.5-2.1,7.6,0l0,0
			c1,1,1.6,2.4,1.6,3.8c0,1.4-0.6,2.8-1.6,3.8l-3.6,3.6C16.8,14.8,15.5,15.3,14.1,15.3z M17.6,2.5c-1,0-2,0.4-2.7,1.1l-3.6,3.6
			c-0.7,0.7-1.1,1.7-1.1,2.7s0.4,2,1.1,2.7c1.5,1.5,4,1.5,5.5,0l3.6-3.6c0.7-0.7,1.1-1.7,1.1-2.7c0-1-0.4-2-1.1-2.7
			C19.6,2.9,18.6,2.5,17.6,2.5z"/>
	</g>
</g>
<path d="M6.4,23c-1.4,0-2.7-0.5-3.8-1.6c-1-1-1.6-2.4-1.6-3.8s0.6-2.8,1.6-3.8l3.6-3.6c2.1-2.1,5.5-2.1,7.6,0l0,0
	c1,1,1.6,2.4,1.6,3.8c0,1.4-0.6,2.8-1.6,3.8l-3.6,3.6C9.1,22.5,7.7,23,6.4,23z M9.9,10.2c-1,0-2,0.4-2.7,1.1l-3.6,3.6
	c-0.7,0.7-1.1,1.7-1.1,2.7s0.4,2,1.1,2.7c1.5,1.5,4,1.5,5.5,0l3.6-3.6c0.7-0.7,1.1-1.7,1.1-2.7c0-1-0.4-2-1.1-2.7
	C11.9,10.6,10.9,10.2,9.9,10.2z"/>
</svg>
