<?xml version="1.0" encoding="utf-8"?>
<!-- Generator: Adobe Illustrator 19.1.1, SVG Export Plug-In . SVG Version: 6.00 Build 0)  -->
<svg version="1.0" id="Layer_1" xmlns="http://www.w3.org/2000/svg" xmlns:xlink="http://www.w3.org/1999/xlink" x="0px" y="0px"
	 viewBox="0 0 42 42" style="enable-background:new 0 0 42 42;" xml:space="preserve">
<style type="text/css">
	.st0{fill:#B38855;}
	.st1{fill-rule:evenodd;clip-rule:evenodd;fill:#FFFFFF;}
</style>
<path class="st0" d="M21,1c11,0,20,9,20,20c0,11-9,20-20,20S1,32,1,21C1,10,10,1,21,1 M21,0C9.4,0,0,9.4,0,21c0,11.6,9.4,21,21,21
	c11.6,0,21-9.4,21-21C42,9.4,32.6,0,21,0L21,0z"/>
<g>
	<path class="st1" d="M21.1,3.5c0,0,0.1,4.6,5.8,8.7c6.3,4.6,9.6,9.6,9.6,9.6s0.9-7.9-7.7-12.5C23,6.2,21.1,3.5,21.1,3.5z"/>
	<path class="st1" d="M28.8,27.6c0,0-2.5,7.8-8.7,8.7c-6.1,0.9-8.7-3.8-8.7-3.8s5.4,4,10.6,1C26.2,30.9,28.8,27.6,28.8,27.6z"/>
	<path class="st1" d="M32.7,30.4c4.6-9-5.3-14.7-8.7-18.3c-4.1-4.4-4.8-7.7-4.8-7.7s-4.2,2.7-1.9,8.7c1,2.6-1.9,5.8-1.9,5.8l1.9,1
		c0,0,0.6,2.1,0,2.9l1,1l-1,1c0,0,1.5,0.1,1,1.9c-0.4,1.4,1.3,1.3,2.9,1c2-0.4,5.8-2.4,6.7,0c1.5,4.1,0.1,6.8-2.9,8.7
		C25,36.2,29.7,36.2,32.7,30.4z"/>
</g>
</svg>
