<?xml version="1.0" encoding="utf-8"?>
<!-- Generator: Adobe Illustrator 19.1.1, SVG Export Plug-In . SVG Version: 6.00 Build 0)  -->
<svg version="1.0" id="Layer_1" xmlns="http://www.w3.org/2000/svg" xmlns:xlink="http://www.w3.org/1999/xlink" x="0px" y="0px"
	 viewBox="0 0 42 42" style="enable-background:new 0 0 42 42;" xml:space="preserve">
<style type="text/css">
	.st0{fill:#FFFFFF;}
	.st1{fill:#B38855;}
</style>
<g>
	<path class="st0" d="M34,13.5l-5.4,5.9c-0.2,0.2-0.5,0.4-0.8,0.4l-1,0c-0.3,0-0.6,0.1-0.8,0.4L22.6,24l6,5.7
		c0.2,0.2,0.4,0.5,0.4,0.9c0,0.3-0.1,0.6-0.3,0.9l-0.2,0.2C28.2,31.9,28,32,27.6,32c-0.3,0-0.6-0.1-0.8-0.4l-5.4-6.2l-5.4,6.2
		c-0.2,0.3-0.5,0.4-0.8,0.4c-0.3,0-0.6-0.1-0.9-0.4L14,31.5c-0.2-0.2-0.4-0.5-0.3-0.9c0-0.3,0.1-0.6,0.4-0.9l6-5.7l-3.5-3.9
		c-0.3-0.4-0.8-0.5-1.2-0.3c-1.2,0.5-2.7,0.1-4.1-1.3c-1.8-1.9-3.2-4.7-1.7-6.2c1.5-1.5,4.1-0.6,6.2,1.3c1.6,1.5,2,3.1,1.5,4.4
		c-0.2,0.5-0.1,1,0.3,1.3l3.8,3.6l3.8-3.6c0.2-0.2,0.4-0.5,0.4-0.8l0-1c0-0.3,0.1-0.6,0.4-0.8l5.7-5.5c0,0,0,0,0,0c0,0,0,0,0,0
		l0,0.4c0,0.1,0,0.1-0.1,0.2L27,16.4c-0.1,0.1-0.1,0.3,0,0.4c0.1,0.1,0.3,0.1,0.4,0l4.8-4.9c0,0,0.1,0,0.1,0h0.2l0.1,0.1v0.2
		c0,0,0,0.1,0,0.1l-4.8,4.9c-0.1,0.1-0.1,0.3,0,0.4c0.1,0.1,0.3,0.1,0.4,0l4.8-4.9c0,0,0.1,0,0.1,0h0.2l0.1,0.1v0.2c0,0,0,0.1,0,0.1
		l-4.8,4.9c-0.1,0.1-0.1,0.3,0,0.4c0.1,0.1,0.3,0.1,0.4,0l4.6-4.8c0.1-0.1,0.1-0.1,0.2-0.1L34,13.5C34,13.4,34,13.4,34,13.5
		C34,13.5,34,13.5,34,13.5z"/>
</g>
<path class="st1" d="M21,1c11,0,20,9,20,20c0,11-9,20-20,20S1,32,1,21C1,10,10,1,21,1 M21,0C9.4,0,0,9.4,0,21c0,11.6,9.4,21,21,21
	c11.6,0,21-9.4,21-21C42,9.4,32.6,0,21,0L21,0z"/>
</svg>
