<?xml version="1.0" encoding="utf-8"?>
<!-- Generator: Adobe Illustrator 19.1.1, SVG Export Plug-In . SVG Version: 6.00 Build 0)  -->
<svg version="1.0" id="Layer_1" xmlns="http://www.w3.org/2000/svg" xmlns:xlink="http://www.w3.org/1999/xlink" x="0px" y="0px"
	 viewBox="0 0 42 42" style="enable-background:new 0 0 42 42;" xml:space="preserve">
<style type="text/css">
	.st0{fill:#B38855;}
	.st1{fill:#FFFFFF;}
</style>
<path class="st0" d="M21,1c11,0,20,9,20,20c0,11-9,20-20,20S1,32,1,21C1,10,10,1,21,1 M21,0C9.4,0,0,9.4,0,21c0,11.6,9.4,21,21,21
	c11.6,0,21-9.4,21-21C42,9.4,32.6,0,21,0L21,0z"/>
<path class="st1" d="M23.9,14.4l1.9-2.9l-1.9-3h-6.2l-1.9,3l2,2.9c-3.6,1.3-6.3,4.9-6.3,9c0,5.3,4.3,9.6,9.5,9.6s9.5-4.3,9.5-9.5
	C30.5,19.2,27.7,15.6,23.9,14.4z M21,30.9c-4.1,0-7.4-3.3-7.4-7.4c0-4.1,3.3-7.4,7.4-7.4c4.1,0,7.4,3.3,7.4,7.4
	C28.4,27.6,25.1,30.9,21,30.9z"/>
</svg>
