<?xml version="1.0" encoding="utf-8"?>
<!-- Generator: Adobe Illustrator 19.1.0, SVG Export Plug-In . SVG Version: 6.00 Build 0)  -->
<svg version="1.1" id="Layer_1" xmlns="http://www.w3.org/2000/svg" xmlns:xlink="http://www.w3.org/1999/xlink" x="0px" y="0px"
	 viewBox="0 0 52 52" style="enable-background:new 0 0 52 52;" xml:space="preserve">
<style type="text/css">
	.st0{fill:#BFBFBF;}
</style>
<g>
	<g>
		<path class="st0" d="M24.4,15.2c-0.6,0-1,0.5-1,1v9.2c-0.5,0.3-0.8,0.9-0.8,1.6c0,1.1,0.8,1.9,1.9,1.9c0.7,0,1.2-0.4,1.6-0.9h9.8
			c0.6,0,1-0.5,1-1c0-0.6-0.5-1-1-1H26c-0.1-0.2-0.3-0.4-0.5-0.6v-9.2C25.4,15.6,25,15.2,24.4,15.2z M42.1,31.7l3.9-6.9h-2
			C43.4,14.6,35.1,6.5,25,6.5C14.5,6.5,6,15.2,6,26c0,10.8,8.5,19.5,19,19.5c3.6,0,7.2-1.1,10.2-3.1c2.2-1.4,4.1-3.3,5.6-5.6
			l-3.2-2.2c-1.2,1.8-2.7,3.3-4.4,4.4c-2.4,1.6-5.2,2.4-8.1,2.4c-8.3,0-15.1-7-15.1-15.5c0-8.6,6.8-15.5,15.1-15.5
			c8,0,14.5,6.3,15.1,14.3h-1.9L42.1,31.7z"/>
	</g>
</g>
</svg>
