<?xml version="1.0" encoding="utf-8"?>
<!-- Generator: Adobe Illustrator 19.1.0, SVG Export Plug-In . SVG Version: 6.00 Build 0)  -->
<svg version="1.1" id="Layer_1" xmlns="http://www.w3.org/2000/svg" xmlns:xlink="http://www.w3.org/1999/xlink" x="0px" y="0px"
	 viewBox="0 0 52 52" style="enable-background:new 0 0 52 52;" xml:space="preserve">
<style type="text/css">
	.st0{fill:#BFBFBF;}
</style>
<g>
	<g>
		<path class="st0" d="M34.2,6.9L33.3,6l-7.5,3.5l5.3,1.9L34.2,6.9z M38,12l-0.3-0.3l-2.6,1.2l1.8,0.7L38,12z M45.4,21.7
			c1.3,0,2.3-1,2.3-2.2c0-1.2-1-2.2-2.3-2.2c-1.3,0-2.3,1-2.3,2.2C43.1,20.7,44.1,21.7,45.4,21.7z M26.4,43h-7.8
			c-0.2,0-0.3,0.1-0.3,0.3v1.5c0,0.2,0.1,0.3,0.3,0.3h7.8c0.2,0,0.3-0.1,0.3-0.3v-1.5C26.7,43.1,26.5,43,26.4,43z M20.1,9.9
			l14.3,4.5c0,0,1,0.2,2.5-0.7L20.9,8c-0.5-0.2-1.7-0.2-1.9,0.4C18.7,8.9,19.5,9.7,20.1,9.9z M48.4,33.5h-1.1
			c0.1-0.2,0.2-0.4,0.2-0.6l0.6-9.7c0-0.6-0.5-1.1-1.2-1.1l-3.3,1.9l0,1.4l-4.4,4.9c-0.3,0.3-0.3,0.7-0.2,1.1
			c-0.4-0.6-0.7-1.2-1.1-1.6c-0.1-0.1-0.4-0.3-0.3-0.4c0.2-0.2,0.5,0.1,0.8,0.1c1,0.3,2.7-1,2.6-2c-0.2-1.5-3.7-0.6-3.8,0.9
			c-0.5-1.2-0.9-2.3-1.4-3.4c-0.5-1-1.1-2.2-1.9-3c-1.2-1.1-3.2-1.3-5.3-1.5c-3-0.3-6.5-0.4-9.7-0.2c-1,0-2,0.2-3,0.3
			c-2,0.2-3.8,0.4-4.9,1.5c-0.4,0.4-0.7,0.9-1,1.4c-0.8,1.2-1.4,2.7-2,4.1C8,27.7,8,28.1,7.8,28.3C7.7,26.8,4.1,26,4,27.4
			c-0.1,1,1.5,2.3,2.5,2.1c0.4-0.1,0.7-0.4,1-0.2c-0.4,0.6-1,1.8-1.6,2.4c-0.5,0.5-1.1,1.3-1.3,1.9c-0.1,0.4-0.1,1-0.1,1.5
			c0.1,1.5,0.3,2.1,0.4,3.5c0,0.4,0.1,0.7,0.1,1.1c0,0.5,0.1,1.1,0.1,1.6c0,0.5,0.1,1,0.1,1.6c0,0.7-0.1,2.9,0.5,3.1
			c0.4,0.2,1.2,0,1.7,0c0.5,0,1.3,0.1,1.7,0c0.4-0.2,0.4-1.1,0.4-1.6c0-0.2,0-0.3,0-0.5c0.7,0.1,1.5,0.1,2.3,0.2
			c1.9,0.1,3.9,0.2,6,0.3C18,44,17.7,43,18,42.8c0.2-0.1,0.7-0.1,1.1-0.1c2,0,3.8,0,5.7,0c0.6,0,2-0.1,2.2,0.1
			c0.3,0.3,0,1.2,0.1,1.6c2.1,0,4.1-0.1,6-0.3c0.8-0.1,1.6-0.1,2.3-0.2c0,0.8,0,1.8,0.5,2.1c0.5,0.1,1.1,0,1.6,0
			c0.6,0,1.2,0.1,1.6,0c0.4-0.1,0.4-1,0.4-1.5c0.1-1.6,0.2-3.3,0.3-4.8l0.4-3.2c0.1-0.8,0.3-2.1,0-2.9c-0.1-0.3-0.4-0.7-0.6-1
			c-0.2-0.3-0.5-0.8-0.7-1.2c0.1,0.1,0.1,0.2,0.2,0.2c0.4,0.4,1.1,0.3,1.4-0.1l2.8-3.1l-0.1,4.5c0,0.2,0.1,0.4,0.2,0.5c0,0,0,0,0,0
			h-1.2c-0.3,0-0.6,0.2-0.6,0.4v4.3c0,0.2,0.3,0.4,0.6,0.4h1.9v5.2l-1.4,0.3c-0.6,0-1.1,0.5-1.1,1.1c0,0.6,0.5,0.5,1.1,0.5h2.4
			c0,0,0.1,0,0.1,0c0.6,0,1.1-0.5,1.1-1.1v-6h1.9c0.3,0,0.6-0.2,0.6-0.4V34C49,33.7,48.7,33.5,48.4,33.5z M11.6,37.6
			c-1.5,0-4.4-1.5-4.4-2.9c0-1.4,3-1.4,4.4-1.4c1.5,0,3.5,0.8,3.5,2.2C15.2,36.9,13.1,37.6,11.6,37.6z M24.7,37.5
			c0,0.1-0.1,0.2-0.2,0.2h-4.3c-0.1,0-0.2-0.1-0.2-0.2v-0.1c0-0.1,0.1-0.2,0.2-0.2h4.3c0.1,0,0.2,0.1,0.2,0.2V37.5z M9,29
			c0.8-2.4,2.2-4.8,3.5-6.7c6.7-0.6,13.4-0.6,20.1,0c1.3,1.9,2.7,4.3,3.5,6.7C27.1,29.1,17.9,29.1,9,29z M33.3,37.5
			c-1.5,0-3.5-0.6-3.5-2.1c0-1.4,2.1-2.2,3.5-2.2c1.5,0,4.4,0,4.4,1.4C37.7,36,34.7,37.5,33.3,37.5z"/>
	</g>
</g>
</svg>
