<?xml version="1.0" encoding="utf-8"?>
<!-- Generator: Adobe Illustrator 19.1.0, SVG Export Plug-In . SVG Version: 6.00 Build 0)  -->
<svg version="1.1" id="Layer_1" xmlns="http://www.w3.org/2000/svg" xmlns:xlink="http://www.w3.org/1999/xlink" x="0px" y="0px"
	 viewBox="0 0 52 52" style="enable-background:new 0 0 52 52;" xml:space="preserve">
<style type="text/css">
	.st0{fill:#CD1F43;}
</style>
<g>
	<g>
		<path class="st0" d="M26,40.8c-0.7,0.6-1.3,1.3-1.3,1.9c0,0.2,0.5,0.6,1.3,0.6c0.8,0,1.3-0.4,1.3-0.6C27.3,42.2,26.6,41.4,26,40.8
			z M10,17.7c1.1-2,2.6-3.8,4.3-5.3c1.7-1.5,3.7-2.7,5.9-3.6c1.2-0.5,2.7-0.9,4.3-1.1l0.3,0c-1.5,0.3-3,0.8-4.3,1.4
			c-2,0.9-3.9,2.2-5.5,3.8c-1.6,1.5-2.9,3.3-3.8,5.3c-0.9,1.9-1.5,3.9-1.7,5.9h36.4c-1.2-9.4-8.7-16.7-18.1-17.6c0,0,0,0,0-0.1
			c0-0.9-0.7-1.2-1.6-1.2s-1.6,0.3-1.6,1.2c0,0,0,0,0,0C14.9,7.3,7.2,14.7,6.1,24.2h1.7C8.1,21.9,8.9,19.7,10,17.7z M29.7,36.1
			l-1.4,2L26,35l-2.4,3.3l-1.4-2c-0.2,0.4-0.5,1-0.9,1.8c-0.4,0.8-0.7,1.7-0.7,2.7c0,2.8,2.6,5.1,5.4,5.1c2.8,0,5.4-2.3,5.4-5.1
			c0-1-0.3-1.8-0.7-2.6C30.2,37.3,29.9,36.5,29.7,36.1z M26,45.1c-2.5,0-4.6-2.2-4.6-4.7c0-0.7,0.2-1.5,0.7-2.5
			c0.1-0.2,0.2-0.4,0.3-0.6l0.6,1l0.6,1l2.4-3.2l2.4,3l0.6-1l0.6-0.9c0.1,0.2,0.2,0.5,0.4,0.7c0.5,0.9,0.7,1.8,0.7,2.5
			C30.6,42.9,28.4,45.1,26,45.1z M46.6,25.3h-0.7H6H5.4c-0.8,0-1.4,1-1.4,2.3c0,1.3,0.6,2.3,1.4,2.3h30.2c0.4,0,0.7,0.3,0.7,0.7
			c0,1.8,1.4,3.2,3.1,3.2c1.7,0,3.3-1.4,3.3-3.1c0-0.4,0.2-0.8,0.6-0.8c0.4,0,0.6,0.4,0.6,0.8c0,2.6-2,4.5-4.5,4.5
			c-2.4,0-4.4-1.8-4.5-4.2H5.8c0.4,3.3,1.7,6.1,5.4,8.5c2.4,1.6,2.8,2.9,2.8,4.2c0,0.5-0.1,0.8-0.3,1c-0.2,0.2-0.5,0.2-0.6,0.2
			c-0.5-0.1-1,0.3-1,0.8c-0.1,0.5,0.3,1,0.8,1c0.1,0,0.2,0,0.4,0c0.6,0,1.2-0.2,1.7-0.6c0.4-0.4,1-1.1,1-2.4c0-1.6-0.4-3.6-3.6-5.7
			c-0.1,0-0.1-0.1-0.2-0.1h8.2c0.3-0.6,2-3.2,2-3.2l1.4,2.1l2.4-3.4l2.4,3.2l1.3-2.1c0,0,1.7,2.8,2,3.4h8.3c-0.1,0-0.1,0.1-0.2,0.1
			c-3.2,2.1-3.6,4.1-3.6,5.7c0,2,1.2,2.9,2.5,3c0,0,0,0,0.1,0c0.5,0,0.9-0.4,0.9-0.9c0-0.5-0.3-0.9-0.9-1c-0.5,0-0.8-0.5-0.8-1.2
			c0-1.2,0.3-2.6,2.8-4.2c4.2-2.7,5.3-5.9,5.5-9.6h0.2c0.8,0,1.4-1,1.4-2.3C48,26.3,47.3,25.3,46.6,25.3z"/>
	</g>
</g>
</svg>
