<?xml version="1.0" encoding="utf-8"?>
<!-- Generator: Adobe Illustrator 19.1.0, SVG Export Plug-In . SVG Version: 6.00 Build 0)  -->
<svg version="1.1" id="Layer_1" xmlns="http://www.w3.org/2000/svg" xmlns:xlink="http://www.w3.org/1999/xlink" x="0px" y="0px"
	 viewBox="0 0 52 52" style="enable-background:new 0 0 52 52;" xml:space="preserve">
<style type="text/css">
	.st0{fill:#BFBFBF;}
</style>
<g>
	<g>
		<path class="st0" d="M28,24.7c6.9-0.7,12.1-4.9,12.1-10c0,0-6.4,1.9-14.1,1.9s-14.1-1.9-14.1-1.9c0,4.9,5.1,9.2,11.9,9.9l0.3,0.1
			l3.5,0.1L28,24.7z M27.9,28.4c0-0.6,0.2-1,0.4-1.2c8-0.8,14.2-6.3,14.2-12.9c0-1.9-0.6-3.8-1.5-5.4C40.5,7.3,34,6,26,6
			c-8.1,0-14.7,1.3-15,2.9H11c-0.9,1.6-1.5,3.4-1.5,5.4c0,6.6,6.1,12,14.1,12.9c0.3,0.2,0.5,0.7,0.5,1.3h0.7v12.2
			c-6.7,0.1-12,1.3-12,2.7c0,1.5,5.9,2.7,13.1,2.7S39,44.8,39,43.3c0.2-1.4-5.1-2.7-11.8-2.8V28.4H27.9z M26.1,7.2
			c7.5,0,12,1,13.4,1.7c-1.4,0.7-6,1.7-13.4,1.7c-7.5,0-12-1-13.4-1.7C14,8.2,18.6,7.2,26.1,7.2z M24.2,26l-0.4-0.1
			c-7.4-0.8-13-5.9-13-11.7c0-1.4,0.3-2.8,1-4.2h0.3c1.9,1,6.8,1.9,13.9,1.9c7.2,0,12.2-1,14-1.9l0.2-0.1c0.7,1.4,1,2.8,1,4.3
			c0,5.9-5.6,10.9-13.1,11.8l-0.5,0.1L24.2,26z"/>
	</g>
</g>
</svg>
