<?xml version="1.0" encoding="utf-8"?>
<!-- Generator: Adobe Illustrator 19.1.1, SVG Export Plug-In . SVG Version: 6.00 Build 0)  -->
<svg version="1.1" id="Layer_1" xmlns="http://www.w3.org/2000/svg" xmlns:xlink="http://www.w3.org/1999/xlink" x="0px" y="0px"
	 viewBox="0 0 52 52" style="enable-background:new 0 0 52 52;" xml:space="preserve">
<g>
	<path d="M44.4,16C41.4,8.4,34.5,3,26.6,3C18.7,3,11.9,8.3,8.9,16c-4,0.6-7,3.9-7.3,8.1c0,0.2,0,0.4,0,0.6c0,0,0,0,0,0c0,0,0,0,0,0
		c0,0,0,0,0,0c0,0.3,0,0.5,0,0.8c0,0,0,0,0,0c0,0.3,0.1,0.5,0.1,0.8c0,0,0,0,0,0.1c0,0.2,0.1,0.5,0.2,0.7c0,0,0,0,0,0
		C1.9,27.4,2,27.6,2,27.8c0,0,0,0,0,0c1.1,2.8,3.5,5,6.5,5.5c2.5,6.3,7.6,11,13.7,12.5c0.3,2.3,2.1,4.1,4.3,4.1
		c2.4,0,4.3-2.2,4.3-4.9c0-2.7-1.9-4.9-4.3-4.9c-1.9,0-3.6,1.4-4.1,3.4c-5.6-1.5-10.2-6.1-12.3-12v-0.7v-8v-4.1
		C12.4,11,18.9,5.3,26.6,5.3c7.4,0,13.7,5.2,16.3,12.6v15.6c4.8,0,8.6-4,8.6-8.8C51.5,20.4,48.4,16.8,44.4,16z"/>
	<path d="M26.7,13.3c-6.3,0-11.5,5-11.5,11.1c0,6.2,5.1,11.1,11.5,11.1s11.5-5,11.5-11.1C38.2,18.3,33.1,13.3,26.7,13.3z M26.7,33.6
		c-5.2,0-9.4-4.1-9.4-9.1c0-5,4.2-9.1,9.4-9.1c5.2,0,9.4,4.1,9.4,9.1C36.1,29.5,31.9,33.6,26.7,33.6z"/>
	<path d="M25.7,23.4h-4.5v2h6.6l0-7.1h-2.1V23.4z"/>
</g>
</svg>
