<?xml version="1.0" encoding="utf-8"?>
<!-- Generator: Adobe Illustrator 19.1.1, SVG Export Plug-In . SVG Version: 6.00 Build 0)  -->
<svg version="1.1" id="Layer_1" xmlns="http://www.w3.org/2000/svg" xmlns:xlink="http://www.w3.org/1999/xlink" x="0px" y="0px"
	 viewBox="0 0 52 52" style="enable-background:new 0 0 52 52;" xml:space="preserve">
<g>
	<path d="M15.1,29L14,29.9c1.5,0,2.9,0.5,4,1.6l2.8,2.5c2.3,2.2,2.4,5.8,0.2,8.1l-0.5,0.5c-1.7,1.8-4.1,2.7-6.5,2.7
		c-1.3,0-2.5-0.3-3.7-0.8l-0.2,1.3l0.4,1.7c0.6,1.1,1.8,1.6,3.4,1.4l14.9-0.2c-3.5-11.4-5.8-19.2-6.9-23.3L15.1,29z"/>
	<path d="M31.1,23.4c2.2,0,4.1-1,5.6-3c1.5-2,2.3-4.4,2.3-7.2c0-2.8-0.8-5.2-2.3-7.2c-1.5-2-3.4-3-5.6-3S27,4,25.5,6
		c-1.5,2-2.3,4.4-2.3,7.2c0,2.8,0.8,5.2,2.3,7.2C27,22.4,28.9,23.4,31.1,23.4z"/>
	<path d="M30.9,24.8l-4.1,4.1l4.3,15.9l3.7-16.4L30.9,24.8z"/>
	<path d="M50.5,34.7c0-1.8-0.6-3.3-1.7-4.6l-1.6-1.4l-7.6-3l-6.4,23.2L46.8,49c2-0.1,3.4-0.6,4.2-1.5c0.4-0.4,0.5-0.9,0.5-1.3
		L50.5,34.7z M43.9,40.6h-2.6c-1.6,0.1-2.4-0.1-2.4-0.5l0.1-0.4l4.9,0.1c0.2,0.2,0.3,0.3,0.4,0.3C44.3,40.3,44.1,40.4,43.9,40.6z"/>
	<path d="M15.8,33.9c-1.1-1-2.7-1-3.7,0.1l-0.5,0.5c-2.3-2.7-3.9-5.9-4.6-9.4L7.6,25c1.4-0.2,2.5-1.5,2.3-2.9l-0.4-3
		c-0.2-1.4-1.5-2.5-2.9-2.3L6,16.9c-2.8,0.3-4.8,2.9-4.5,5.7l0,0.1c0.1,1.1,0.2,2.1,0.4,3.1l0,0l0,0c0.9,4.6,3,8.8,6.2,12.2l0,0l0,0
		c0.7,0.8,1.4,1.4,2.2,2.1c0,0,0.5,0.4,0.7,0.6c0,0,0,0,0.1,0.1l0,0c2.1,1.4,4.9,1.2,6.7-0.7l0.4-0.4c1-1,1-2.7-0.1-3.7L15.8,33.9z"
		/>
</g>
</svg>
