<?xml version="1.0" encoding="utf-8"?>
<!-- Generator: Adobe Illustrator 19.1.1, SVG Export Plug-In . SVG Version: 6.00 Build 0)  -->
<svg version="1.1" id="Layer_1" xmlns="http://www.w3.org/2000/svg" xmlns:xlink="http://www.w3.org/1999/xlink" x="0px" y="0px"
	 viewBox="0 0 52 52" style="enable-background:new 0 0 52 52;" xml:space="preserve">
<g>
	<path d="M1.5,38.6h50v1.7h-50V38.6z"/>
	<path d="M3.2,36.9h6.9c0-6.3-1.7-10.4-1.7-10.4c12.1,0,17.2-17.3,17.2-17.3H3.2V36.9z"/>
	<path d="M44.6,26.5c0,0-1.7,4-1.7,10.4h6.9V9.2H27.4C27.4,9.2,32.5,26.5,44.6,26.5z"/>
	<path d="M1.5,4h50v3.5h-50V4z"/>
	<path d="M4.9,42.1c-1.9,0-3.4,1.6-3.4,3.5V49h6.9v-3.5C8.4,43.6,6.8,42.1,4.9,42.1z"/>
	<path d="M13.6,42.1c-1.9,0-3.4,1.6-3.4,3.5V49H17v-3.5C17,43.6,15.5,42.1,13.6,42.1z"/>
	<path d="M22.2,42.1c-1.9,0-3.4,1.6-3.4,3.5V49h6.9v-3.5C25.6,43.6,24.1,42.1,22.2,42.1z"/>
	<path d="M30.8,42.1c-1.9,0-3.4,1.6-3.4,3.5V49h6.9v-3.5C34.2,43.6,32.7,42.1,30.8,42.1z"/>
	<path d="M39.4,42.1c-1.9,0-3.4,1.6-3.4,3.5V49h6.9v-3.5C42.9,43.6,41.3,42.1,39.4,42.1z"/>
	<path d="M48,42.1c-1.9,0-3.4,1.6-3.4,3.5V49h6.9v-3.5C51.5,43.6,49.9,42.1,48,42.1z"/>
</g>
</svg>
