<?xml version="1.0" encoding="utf-8"?>
<!-- Generator: Adobe Illustrator 19.1.0, SVG Export Plug-In . SVG Version: 6.00 Build 0)  -->
<svg version="1.1" id="Layer_1" xmlns="http://www.w3.org/2000/svg" xmlns:xlink="http://www.w3.org/1999/xlink" x="0px" y="0px"
	 viewBox="0 0 52 52" style="enable-background:new 0 0 52 52;" xml:space="preserve">
<style type="text/css">
	.st0{fill:#CD1F43;}
</style>
<g>
	<g>
		<path class="st0" d="M48.5,24.6h-2.1c-0.7,0-1.2,0.6-1.2,1.3v6.5H6.8V16.5c0-0.7-0.6-1.3-1.2-1.3H3.5c-0.7,0-1.2,0.6-1.2,1.3v27.1
			c0,0.7,0.6,1.3,1.2,1.3h2.1c0.7,0,1.2-0.6,1.2-1.3v-3.4h38.3v3.4c0,0.7,0.6,1.3,1.2,1.3h2.1c0.7,0,1.2-0.6,1.2-1.3V25.8
			C49.8,25.1,49.2,24.6,48.5,24.6z M12.9,29.2c2.5,0,4.5-2,4.5-4.6c0-2.5-2-4.6-4.5-4.6c-2.5,0-4.5,2-4.5,4.6
			C8.4,27.1,10.4,29.2,12.9,29.2z M24,20c-1.2-0.1-2.5,0.3-3.4,1.1c-0.9,0.8-1.5,2.1-1.5,3.3v4.8h24.7C42.1,25.7,35,21.1,24,20z"/>
	</g>
</g>
</svg>
