<?xml version="1.0" encoding="utf-8"?>
<!-- Generator: Adobe Illustrator 19.1.1, SVG Export Plug-In . SVG Version: 6.00 Build 0)  -->
<svg version="1.0" id="Layer_1" xmlns="http://www.w3.org/2000/svg" xmlns:xlink="http://www.w3.org/1999/xlink" x="0px" y="0px"
	 viewBox="0 0 52 52" style="enable-background:new 0 0 52 52;" xml:space="preserve">
<g>
	<path d="M39.5,28.7c-0.6-0.3-1.4-0.9-3-2.1c-1.5-1.2-3.6-2.8-4.6-3.2c-1.8-0.9-4.6-2.4-5.6-2.9c-1.5,0-3,0.1-3.9,0.1
		c0,0.1-0.1,0.1-0.1,0.2c-0.6,1.2-1.6,3.1-3.1,3.7c-0.5,0.2-1.2,0.3-1.8,0.3c-1,0-1.8-0.3-2.2-0.9c-0.3-0.4-0.4-0.9-0.3-1.4
		c0.1-1.4,0.5-4,1.3-5.8c-0.7-0.3-1.5-0.8-2.4-1.3L8.7,25c0.7,0.5,2.3,2.1,2.9,2.8c0.4,0.5,0.5,1.2,0.7,2c0.6-0.6,1.3-1.1,2.2-1.1
		c0.2,0,0.4,0,0.5,0.1c0.9,0.2,1.6,0.9,2,1.7c0.3-0.1,0.6-0.2,1-0.2c0.5,0,0.9,0.1,1.3,0.4c0.6,0.3,0.9,0.8,1.1,1.4
		c0.2,0,0.4-0.1,0.6-0.1c0.5,0,1,0.1,1.5,0.4c0.9,0.5,1.3,1.5,1.2,2.7c0.4,0,0.8,0.1,1.2,0.3c1.1,0.7,1.4,2.5,1.1,3.8l0,0.1l0,0.1
		c0.2,0.2,0.4,0.3,0.5,0.4c2.3,1,3.6-1.1,3.3-2.1c0.8,0.6,2.5,0.3,3.2-0.5c0.8-0.8,0.4-2.3,0.4-2.3s2.2,1.2,3.7-0.3
		c1-1,0.2-2.3,0.2-2.3s2,0.8,3-0.5C41.2,30.7,40.6,29.7,39.5,28.7z"/>
	<path d="M24.6,36.9c-0.5-0.3-1.7,0-2.2,0.7l-0.1,0.3c-0.5,0.7-0.3,1.6,0.4,2.1c0.2,0.2,0.5,0.2,0.8,0.3c0.6,0,1,0,1.5-0.9l0.1-0.2
		C25.3,38.2,25.1,37.1,24.6,36.9z"/>
	<path d="M36.7,16c-0.7-0.1-2.2-1-3.5-1.2c-1.3-0.2-3.4-0.8-4.6-1.2c-1.3-0.4-4.9,0.9-6.6,1.2c-1.7,0.3-2.7,0.6-3.9,1.7
		c-1.3,1.1-1.8,6.2-1.8,6.2c-0.2,0.6,1.4,0.7,2.4,0.3c1.6-0.6,2.6-3.9,3-4c0.4,0,5-0.1,5-0.1s3.6,2,5.8,3c2.2,1,7.6,5.8,7.8,5.4
		c0.1-0.3,1.9-1.4,2.8-2l-3.7-10.3C38.6,15.5,37.2,16,36.7,16z"/>
	<path d="M15.8,32.5c0.2-0.9-0.2-2.1-1.1-2.3c-0.9-0.2-1.7,0.8-1.9,1.7l-0.1,0.4c-0.2,0.9,0.3,1.7,1.2,1.9c0.1,0,0.2,0,0.2,0
		c0.8,0.1,1.3-0.4,1.5-1.2L15.8,32.5z"/>
	<path d="M18.6,32c-0.8-0.5-1.7,0.1-2.2,0.9L15.6,34c-0.4,0.8-0.1,1.8,0.6,2.3c0.2,0.1,0.4,0.1,0.6,0.1c0.6,0,1-0.3,1.4-0.9l0.6-1.3
		C19.2,33.5,19.3,32.5,18.6,32z"/>
	<path d="M22.3,33.8c-0.8-0.5-1.6-0.2-2,0.6l-1,1.4c-0.5,0.8-0.2,1.7,0.5,2.2c0.2,0.1,0.5,0.2,0.7,0.2c0.6,0,1.2-0.2,1.5-0.8
		l0.5-1.1C22.8,35.6,23.1,34.2,22.3,33.8z"/>
	<path d="M7.3,10.7L0.5,24.8l6.1,2.9l6.7-14.1L7.3,10.7z M5.6,25.4c-0.6,0-1.1-0.5-1.1-1.1c0-0.6,0.5-1.1,1.1-1.1
		c0.6,0,1.1,0.5,1.1,1.1C6.7,24.9,6.2,25.4,5.6,25.4z"/>
	<path d="M46.2,10.6l-6.4,2.3l5.3,14.7l6.4-2.3L46.2,10.6z M46.4,25.8c-0.5,0-0.9-0.4-0.9-1s0.4-1,0.9-1c0.5,0,0.9,0.4,0.9,1
		S46.9,25.8,46.4,25.8z"/>
</g>
</svg>
