<?xml version="1.0" encoding="utf-8"?>
<!-- Generator: Adobe Illustrator 19.1.0, SVG Export Plug-In . SVG Version: 6.00 Build 0)  -->
<svg version="1.1" id="Layer_1" xmlns="http://www.w3.org/2000/svg" xmlns:xlink="http://www.w3.org/1999/xlink" x="0px" y="0px"
	 viewBox="0 0 52 52" style="enable-background:new 0 0 52 52;" xml:space="preserve">
<style type="text/css">
	.st0{fill:#BFBFBF;}
</style>
<g>
	<g>
		<path class="st0" d="M12,43.8c0,0.7,0.6,1.3,1.3,1.3h25.5c0.7,0,1.2-0.6,1.2-1.3V14.4H12V43.8z M26,18.9c4.7,0,8.6,3.4,9.4,7.9
			h-1.4c-0.8-3.7-4-6.5-7.9-6.5c-4.5,0-8.1,3.6-8.1,8.1c0,4.5,3.6,8.1,8.1,8.1c3.9,0,7.2-2.8,7.9-6.5h1.4C34.6,34.5,30.7,38,26,38
			c-5.3,0-9.5-4.3-9.5-9.5C16.5,23.1,20.7,18.9,26,18.9z M32.3,28.4c0,3.5-2.8,6.3-6.3,6.3c-3.5,0-6.3-2.8-6.3-6.3
			c0-3.5,2.8-6.3,6.3-6.3C29.5,22.1,32.3,24.9,32.3,28.4z M38.7,7H13.3C12.6,7,12,7.6,12,8.3V13h28V8.3C40,7.6,39.4,7,38.7,7z
			 M21.9,11.2h-7.3V9.1h7.3V11.2z M28.7,11.2c-0.6,0-1.1-0.5-1.1-1.1c0-0.6,0.5-1.1,1.1-1.1s1.1,0.5,1.1,1.1
			C29.7,10.7,29.3,11.2,28.7,11.2z M32.8,11.2c-0.6,0-1.1-0.5-1.1-1.1c0-0.6,0.5-1.1,1.1-1.1c0.6,0,1.1,0.5,1.1,1.1
			C33.8,10.7,33.3,11.2,32.8,11.2z M36.8,11.2c-0.6,0-1.1-0.5-1.1-1.1c0-0.6,0.5-1.1,1.1-1.1c0.6,0,1.1,0.5,1.1,1.1
			C37.9,10.7,37.4,11.2,36.8,11.2z"/>
	</g>
</g>
</svg>
