<?xml version="1.0" encoding="utf-8"?>
<!-- Generator: Adobe Illustrator 19.1.1, SVG Export Plug-In . SVG Version: 6.00 Build 0)  -->
<svg version="1.1" id="Layer_1" xmlns="http://www.w3.org/2000/svg" xmlns:xlink="http://www.w3.org/1999/xlink" x="0px" y="0px"
	 viewBox="0 0 52 52" style="enable-background:new 0 0 52 52;" xml:space="preserve">
<g>
	<path d="M26.5,2c-0.4,0-0.8,0.2-1.1,0.4C17.1,8.6,9.1,15.6,2.1,21.8c-0.5,0.5-0.7,1.2-0.5,1.9c0.2,0.7,0.9,1.1,1.6,1.1h1.7
		c0,8.7,0,17.5,0,26.2c15,0,30.4,0,43.2,0c0-8.7,0-17.5,0-26.2h1.7c0.7,0,1.4-0.5,1.6-1.1c0.2-0.7,0-1.4-0.5-1.9l-6.2-5.5V7.1
		c0-0.9-0.8-1.7-1.7-1.7h-5.7c-0.9,0-1.7,0.8-1.7,1.7v1.5l-8-6.2C27.2,2.1,26.9,2,26.5,2L26.5,2z M8.3,24.8h36.4v22.8H8.3V24.8z"/>
</g>
</svg>
