<?xml version="1.0" encoding="utf-8"?>
<!-- Generator: Adobe Illustrator 19.1.0, SVG Export Plug-In . SVG Version: 6.00 Build 0)  -->
<svg version="1.1" id="Layer_1" xmlns="http://www.w3.org/2000/svg" xmlns:xlink="http://www.w3.org/1999/xlink" x="0px" y="0px"
	 viewBox="0 0 52 52" style="enable-background:new 0 0 52 52;" xml:space="preserve">
<style type="text/css">
	.st0{fill:#BFBFBF;}
</style>
<g>
	<g>
		<path class="st0" d="M36,37.5c10.3,0,15-7.6,15-7.6c-3.9,1.8-6.7,2.6-15,2.6c-6.9,0-15.4,0-20,0c-9.6,0-15,7.6-15,7.6
			s4.4-2.6,15-2.6C20.6,37.5,30.3,37.5,36,37.5z M16,39.4c-9.6,0-15,7.6-15,7.6s4.4-2.6,15-2.6c4.6,0,14.3,0,20,0
			c10.3,0,15-7.6,15-7.6c-3.9,1.8-6.7,2.6-15,2.6C29.1,39.4,20.6,39.4,16,39.4z M32.2,19.4c0,3.5,2.8,6.3,6.2,6.3s6.2-2.8,6.2-6.3
			s-2.8-6.3-6.2-6.3S32.2,15.9,32.2,19.4z M33.5,29.9l-7-14.3l13.2-8.9l-1.1-1.9l-18.9,8.6l4.5,9.7L6,29.9H33.5z"/>
	</g>
</g>
</svg>
