<?xml version="1.0" encoding="utf-8"?>
<!-- Generator: Adobe Illustrator 19.1.0, SVG Export Plug-In . SVG Version: 6.00 Build 0)  -->
<svg version="1.1" id="Layer_1" xmlns="http://www.w3.org/2000/svg" xmlns:xlink="http://www.w3.org/1999/xlink" x="0px" y="0px"
	 viewBox="0 0 52 52" style="enable-background:new 0 0 52 52;" xml:space="preserve">
<style type="text/css">
	.st0{fill:#BFBFBF;}
</style>
<g>
	<g>
		<path class="st0" d="M49.2,42.7c0,0-7.7,0-16.9,0v3.9v0c4,0,6.8,0,6.8,0c2.9,0,4.2,0,5.8,0h4.5c1.4,0,1.6-1.2,1.6-1.2v-1
			C50.9,44.5,51,42.7,49.2,42.7z M46.8,41.7c2.3,0,4.2-1.9,4.2-4.2c0-2.3-1.9-4.2-4.2-4.2c-2.3,0-4.2,1.9-4.2,4.2
			C42.6,39.9,44.5,41.7,46.8,41.7z M32.3,42H38c2.2,0,4-1.8,4-3.9c0-2.2-1.7-3.4-3.9-3.4l-5.7,0.6V42z M19.3,14.6
			c2.6,0,4.6-2.1,4.6-4.6c0-2.6-2.1-4.6-4.6-4.6c-2.6,0-4.6,2.1-4.6,4.6C14.6,12.5,16.7,14.6,19.3,14.6z M16.3,31.4
			c-0.9-0.3-1.5-1-1.8-1.9c0,0,0,0,0-0.1l-2.1-4.9l0,9.6h6.3l1.4-1.4L16.3,31.4z M32.4,29.5l-1.5-6.4c-0.1-0.4-0.3-0.7-0.6-0.9
			c-0.8-0.8-4.6-5.1-4.9-5.4c-0.4-0.4-1.3-1.1-3.1-1.1h-6.3c-3.6,0-4.2,3.5-3.5,5.4l3.3,7.9c0.2,0.5,0.6,0.8,1.1,1l7.2,2.6
			c0.9,0.4,2,0,2.4-0.9c0.4-0.9,0-2-0.9-2.4l-6.6-2.5l-2-4.9l1.3-0.5l1.7,4.2l5,1.8v-5.1l2.7,1.6l1.3,6.6c0.3,0.9,1.4,1.4,2.3,1.1
			C32.2,31.5,32.7,30.5,32.4,29.5z M1,37.1C1,37.4,1,38,1,38l0,8.7c0,0,1.8,0,2.4,0h27.8V34.9H3C2,34.9,1,35.9,1,37.1z"/>
	</g>
</g>
</svg>
