<?xml version="1.0" encoding="utf-8"?>
<!-- Generator: Adobe Illustrator 19.1.0, SVG Export Plug-In . SVG Version: 6.00 Build 0)  -->
<svg version="1.1" id="Layer_1" xmlns="http://www.w3.org/2000/svg" xmlns:xlink="http://www.w3.org/1999/xlink" x="0px" y="0px"
	 viewBox="0 0 52 52" style="enable-background:new 0 0 52 52;" xml:space="preserve">
<style type="text/css">
	.st0{fill:#CD1F43;}
</style>
<g>
	<g>
		<path class="st0" d="M49.3,36c-2.4-2-4.9-3.3-5.4-3.7c0,0-0.1-0.1-0.1-0.2v-1.6c0.2-0.5,0.3-1,0.4-1.5c0,0.1,0.1,0.1,0.1,0.1
			c0.2,0,0.5-0.3,0.8-1.4c0.3-1.1,0.1-1.5-0.1-1.6c0.9-4.3-1.1-4.5-1.1-4.5s-0.3-0.6-1.1-1.1c-0.4-0.3-1.1-0.5-1.9-0.5
			c-0.1,0-0.2,0-0.4,0c-0.3,0-0.6,0.1-0.9,0.2c-0.3,0.1-0.7,0.3-1,0.5c-0.4,0.2-0.7,0.5-1,0.9c-0.5,0.6-0.9,1.2-1.1,2
			c-0.2,0.7-0.1,1.5,0.1,2.2h0c-0.3,0-0.7,0.3-0.3,1.7c0.3,1.1,0.6,1.4,0.8,1.4c0.1,0.6,0.3,1.3,0.6,1.9v1.4c0,0,0,0.1-0.1,0.2
			c-0.2,0-0.5,0.3-1,0.5c0.7,0.8,1.1,1.7,1.1,2.7v2.8V42H50v-1.9v-2.7C50,36.9,49.8,36.3,49.3,36z M29.3,30.4c0-0.1-0.1-0.1-0.1-0.2
			v-1.7c0.2-0.5,0.4-1.1,0.5-1.6c0,0.1,0.1,0.1,0.1,0.1c0.2,0,0.5-0.3,0.8-1.5c0.3-1.2,0.1-1.6-0.1-1.7c0.9-4.5-1.2-4.7-1.2-4.7
			s-0.3-0.6-1.2-1.1c-0.5-0.3-1.1-0.6-2-0.6c-0.1,0-0.2,0-0.4,0c-0.3,0-0.6,0.1-0.9,0.2c-0.4,0.2-0.7,0.3-1,0.6
			c-0.4,0.3-0.7,0.6-1.1,0.9c-0.5,0.6-1,1.2-1.2,2.1c-0.2,0.7-0.2,1.5,0.1,2.3h0c-0.3,0-0.7,0.3-0.3,1.7c0.3,1.1,0.6,1.4,0.8,1.5
			c0.1,0.7,0.3,1.4,0.6,2v1.5c0,0.1,0,0.2-0.1,0.2c-0.5,0.3-3.2,1.7-5.7,3.7c-0.4,0.4-0.7,1-0.7,1.5v2.8v3.6h19.5v-3.6v-2.8
			c0-0.6-0.2-1.2-0.7-1.5C32.6,32,29.9,30.6,29.3,30.4z M15.7,26.2c0.9-4.3-1.1-4.5-1.1-4.5s-0.3-0.6-1.1-1.1
			c-0.4-0.3-1.1-0.5-1.9-0.5c-0.1,0-0.2,0-0.4,0c-0.3,0-0.6,0.1-0.9,0.2c-0.3,0.2-0.7,0.3-1,0.5c-0.4,0.3-0.7,0.6-1,0.9
			c-0.5,0.5-0.9,1.2-1.1,2c-0.2,0.7-0.2,1.5,0.1,2.2h0c-0.3,0-0.7,0.3-0.3,1.7c0.3,1.1,0.6,1.4,0.8,1.4c0.1,0.6,0.3,1.3,0.6,1.9v1.4
			c0,0.1,0,0.2-0.1,0.2C7.7,32.7,5.1,34,2.7,36C2.2,36.3,2,36.9,2,37.4v2.7V42h12.4v-3.6h0v-2.8c0-1,0.4-2,1.1-2.7
			c-0.5-0.3-0.8-0.5-1-0.5c0-0.1-0.1-0.1-0.1-0.2v-1.6c0.2-0.5,0.4-1.1,0.4-1.5c0,0,0.1,0,0.1,0c0.2,0,0.5-0.3,0.8-1.4
			C16.2,26.6,16,26.3,15.7,26.2z"/>
	</g>
</g>
</svg>
