<?xml version="1.0" encoding="utf-8"?>
<!-- Generator: Adobe Illustrator 19.1.0, SVG Export Plug-In . SVG Version: 6.00 Build 0)  -->
<svg version="1.1" id="Layer_1" xmlns="http://www.w3.org/2000/svg" xmlns:xlink="http://www.w3.org/1999/xlink" x="0px" y="0px"
	 viewBox="0 0 20 20" style="enable-background:new 0 0 20 20;" xml:space="preserve">
<path d="M11.8,11.8"/>
<path d="M19.4,17.4l-6-6c0.8-1.2,1.2-2.6,1.2-4.1c0-4-3.3-7.3-7.3-7.3S0,3.3,0,7.3s3.3,7.3,7.3,7.3c1.4,0,2.8-0.4,3.9-1.2l6.1,6.1
	c0.3,0.3,0.7,0.4,1.1,0.4c0.4,0,0.8-0.1,1-0.4C20,18.9,20,18,19.4,17.4z M3,7.3C3,4.9,4.9,3,7.3,3c2.4,0,4.3,1.9,4.3,4.3
	c0,2.4-1.9,4.3-4.3,4.3C4.9,11.6,3,9.7,3,7.3z"/>
</svg>
