<?xml version="1.0" encoding="utf-8"?>
<!-- Generator: Adobe Illustrator 19.1.0, SVG Export Plug-In . SVG Version: 6.00 Build 0)  -->
<svg version="1.1" id="Layer_1" xmlns="http://www.w3.org/2000/svg" xmlns:xlink="http://www.w3.org/1999/xlink" x="0px" y="0px"
	 viewBox="0 0 20 20" style="enable-background:new 0 0 20 20;" xml:space="preserve">
<path d="M7.3,3c2.4,0,4.3,1.9,4.3,4.3c0,2.4-1.9,4.3-4.3,4.3S3,9.7,3,7.3C3,4.9,4.9,3,7.3,3 M7.3,0C3.3,0,0,3.3,0,7.3
	c0,4,3.3,7.3,7.3,7.3c4,0,7.3-3.3,7.3-7.3C14.6,3.3,11.3,0,7.3,0L7.3,0z"/>
<path d="M11.8,11.8"/>
<path d="M18.4,19.9c-0.4,0-0.8-0.1-1.1-0.4l-6.9-6.9c-0.6-0.6-0.6-1.5,0-2.1s1.5-0.6,2.1,0l6.9,6.9c0.6,0.6,0.6,1.5,0,2.1
	C19.2,19.8,18.8,19.9,18.4,19.9z"/>
</svg>
