<?xml version="1.0" encoding="utf-8"?>
<!-- Generator: Adobe Illustrator 19.1.0, SVG Export Plug-In . SVG Version: 6.00 Build 0)  -->
<svg version="1.1" id="Layer_1" xmlns="http://www.w3.org/2000/svg" xmlns:xlink="http://www.w3.org/1999/xlink" x="0px" y="0px"
	 viewBox="0 0 20 20" style="enable-background:new 0 0 20 20;" xml:space="preserve">
<g>
	<g>
		<path d="M14.7,14.1c-0.3-0.5-0.9-0.8-1.5-1.5c-0.6-0.7-0.7-0.5-0.9-0.5c-0.2,0-1,0.7-1.4,0.9c-0.2,0.1-0.5,0-0.6,0
			c-1.9-1.4-2.8-4.6-2.8-4.6C7.3,8.2,7.6,8,7.6,8c0.5-0.3,0.7-0.4,1-0.6c0.6-0.4,0-2.7,0-3.2c0-0.5-0.9-0.6-0.9-0.6
			C6,3.4,4.9,5.4,5,6.4c0.6,5.9,4.7,10.9,8.3,9.7c0,0,1-0.2,1.3-1.4C14.7,14.5,14.7,14.2,14.7,14.1z"/>
	</g>
</g>
<path d="M10,2c0.8,0,1.6,0.1,2.4,0.4c2,0.6,3.7,2,4.7,3.9c1,1.9,1.2,4.1,0.6,6.1c-1,3.4-4.1,5.6-7.6,5.6c-0.8,0-1.6-0.1-2.4-0.4
	c-2-0.6-3.7-2-4.7-3.9c-1-1.9-1.2-4.1-0.6-6.1C3.4,4.3,6.5,2,10,2 M10,0C5.7,0,1.8,2.8,0.4,7.1c-1.6,5.3,1.3,10.9,6.6,12.5
	c1,0.3,2,0.4,3,0.4c4.3,0,8.2-2.8,9.5-7.1c1.6-5.3-1.3-10.9-6.6-12.5C12,0.1,11,0,10,0L10,0z"/>
</svg>
