<?xml version="1.0" encoding="utf-8"?>
<!-- Generator: Adobe Illustrator 19.1.1, SVG Export Plug-In . SVG Version: 6.00 Build 0)  -->
<svg version="1.1" id="Layer_1" xmlns="http://www.w3.org/2000/svg" xmlns:xlink="http://www.w3.org/1999/xlink" x="0px" y="0px"
	 viewBox="0 0 36 36" style="enable-background:new 0 0 36 36;" xml:space="preserve">
<style type="text/css">
	.st0{fill:#BB8B46;}
	.st1{fill:#FFFFFF;}
</style>
<circle class="st0" cx="18" cy="18" r="17.5"/>
<g>
	<path class="st1" d="M18,29.5L17.5,29C12,24.3,6.3,19.3,6.3,14.3c0-3,2.8-5.5,6.2-5.5c2.7,0,4.2,1.9,5.5,4c1.2-2.1,2.8-4,5.5-4
		c3.4,0,6.2,2.5,6.2,5.5c0,5.1-5.7,10-11.2,14.8L18,29.5z M12.5,10.3c-2.6,0-4.7,1.8-4.7,4c0,4.3,5.1,8.8,10.2,13.2
		c5.1-4.4,10.2-9,10.2-13.2c0-2.2-2.1-4-4.7-4c-2.3,0-3.5,2.1-4.8,4.4L18,15.8l-0.7-1.1C16.1,12.4,14.8,10.3,12.5,10.3z"/>
</g>
</svg>
