<?xml version="1.0" encoding="utf-8"?>
<!-- Generator: Adobe Illustrator 19.1.1, SVG Export Plug-In . SVG Version: 6.00 Build 0)  -->
<svg version="1.1" id="Layer_1" xmlns="http://www.w3.org/2000/svg" xmlns:xlink="http://www.w3.org/1999/xlink" x="0px" y="0px"
	 viewBox="0 0 36 36" style="enable-background:new 0 0 36 36;" xml:space="preserve">
<style type="text/css">
	.st0{fill:#BB8B46;}
	.st1{fill:#FFFFFF;}
</style>
<circle class="st0" cx="18" cy="18" r="17.5"/>
<path class="st1" d="M22,22.3c-1,0-2,0.4-2.6,1.1l-5.8-3.8c0.1-0.3,0.2-0.6,0.2-1c0-0.6-0.1-1.1-0.4-1.6l5.5-3.9
	c0.7,1,1.8,1.7,3.1,1.7c2.1,0,3.8-1.7,3.8-3.8S24.1,7.3,22,7.3s-3.8,1.7-3.8,3.8c0,0.2,0,0.4,0.1,0.6l-5.8,4.2c-0.7-0.6-1.5-1-2.5-1
	c-2.1,0-3.8,1.7-3.8,3.8c0,2.1,1.7,3.8,3.8,3.8c1.2,0,2.2-0.6,2.9-1.4l5.6,3.7c-0.2,0.4-0.3,0.9-0.3,1.4c0,2.1,1.7,3.8,3.8,3.8
	s3.8-1.7,3.8-3.8S24.1,22.3,22,22.3z M22,8.8c1.2,0,2.3,1,2.3,2.3s-1,2.3-2.3,2.3s-2.3-1-2.3-2.3S20.8,8.8,22,8.8z M10,20.8
	c-1.2,0-2.3-1-2.3-2.3c0-1.2,1-2.3,2.3-2.3s2.3,1,2.3,2.3C12.3,19.7,11.2,20.8,10,20.8z M22,28.3c-1.2,0-2.3-1-2.3-2.3
	s1-2.3,2.3-2.3s2.3,1,2.3,2.3S23.2,28.3,22,28.3z"/>
</svg>
